PathFileType	4	(X/Y/Z)	/Users/itak/Documents/Research/Walk-IL/dataset/trc/00368_00011.trc
DataRate	CameraRate	NumFrames	NumMarkers	Units	OrigDataRate	OrigDataStartFrame	OrigNumFrames
100.000000	100.000000	4	61	mm	100.000000	208	557
Frame#	Time	LPSI			L3			STRN			T10			C7			CLAV			RBAK			LBAK			LSHO			LUPA			LAEL			LAOL			LWTS			LWPS			LFRA			LHPS			LHTS			RSHO			RUPA			RAEL			RAOL			RWTS			RWPS			RFRA			RIFD			RHTS			RBHD			LFHD			RFHD			LBHD			LHIP			RHIP			RASI			LASI			LKNE			LANK			LTIP			LTOE			LMT1			LMT5			LHEE			RKNE			RTHI			RANK			RTIP			RTOE			RMT1			RMT5			RHEE			RPSI			RHPS			LTHI			LIFD			*53			*54			*55			*56			*57			*58			*59			*60			
		X1	Y1	Z1	X2	Y2	Z2	X3	Y3	Z3	X4	Y4	Z4	X5	Y5	Z5	X6	Y6	Z6	X7	Y7	Z7	X8	Y8	Z8	X9	Y9	Z9	X10	Y10	Z10	X11	Y11	Z11	X12	Y12	Z12	X13	Y13	Z13	X14	Y14	Z14	X15	Y15	Z15	X16	Y16	Z16	X17	Y17	Z17	X18	Y18	Z18	X19	Y19	Z19	X20	Y20	Z20	X21	Y21	Z21	X22	Y22	Z22	X23	Y23	Z23	X24	Y24	Z24	X25	Y25	Z25	X26	Y26	Z26	X27	Y27	Z27	X28	Y28	Z28	X29	Y29	Z29	X30	Y30	Z30	X31	Y31	Z31	X32	Y32	Z32	X33	Y33	Z33	X34	Y34	Z34	X35	Y35	Z35	X36	Y36	Z36	X37	Y37	Z37	X38	Y38	Z38	X39	Y39	Z39	X40	Y40	Z40	X41	Y41	Z41	X42	Y42	Z42	X43	Y43	Z43	X44	Y44	Z44	X45	Y45	Z45	X46	Y46	Z46	X47	Y47	Z47	X48	Y48	Z48	X49	Y49	Z49	X50	Y50	Z50	X51	Y51	Z51	X52	Y52	Z52	X53	Y53	Z53	X54	Y54	Z54	X55	Y55	Z55	X56	Y56	Z56	X57	Y57	Z57	X58	Y58	Z58	X59	Y59	Z59	X60	Y60	Z60	X61	Y61	Z61	

209	2.08	-1285.09716796875	959.2645874023438	-203.6737670898438	-1292.8798828125	1023.068908691406	-147.2188415527344	-1038.131713867188	1185.60498046875	-134.3181915283203	-1279.786010742188	1140.100952148438	-166.928955078125	-1217.021728515625	1380.852661132812	-179.5509490966797	-1069.70263671875	1314.310791015625	-142.5470428466797	-1284.454956054688	1243.792602539062	-125.6557464599609	-1210.800903320312	1345.023681640625	-282.4118957519531	-1113.93212890625	1358.724487304688	-318.8957214355469	-1118.65625	1237.765502929688	-388.6842956542969	-1088.126831054688	1034.1083984375	-394.9723205566406	-1165.274658203125	1016.841491699219	-361.4682312011719	-986.449951171875	808.0714111328125	-304.7561645507812	-1003.916931152344	788.3193969726562	-368.8832092285156	-1061.592163085938	930.8500366210938	-391.2643127441406	-1002.087463378906	718.3839721679688	-356.920654296875	-963.8908081054688	729.3711547851562	-306.6050415039062	-1196.760009765625	1364.3642578125	-8.298476219177246	-1227.277954101562	1301.192016601562	48.84627151489258	-1262.556030273438	1036.965576171875	83.33538818359375	-1271.028564453125	1030.683837890625	-11.2549295425415	-1159.745239257812	800.5693359375	80.17752075195312	-1220.574096679688	788.4869384765625	128.4819183349609	-1249.500366210938	967.8907470703125	101.0087890625	-1167.810180664062	625.6824340820312	95.95626068115234	-1148.726440429688	696.1865844726562	103.8374404907227	-1179.389282226562	1580.740966796875	-76.75376129150391	-986.0616455078125	1584.881225585938	-156.8095855712891	-1017.228210449219	1581.561157226562	-60.51451873779297	-1161.68505859375	1582.710083007812	-220.6013336181641	-1204.121704101562	894.2225952148438	-307.0780944824219	-1207.130004882812	902.0896606445312	33.97916030883789	-1104.814819335938	928.5427856445312	-13.4344596862793	-1079.420166015625	913.002685546875	-250.3602905273438	-1226.83935546875	437.7815246582031	-267.7970886230469	-1428.692749023438	50.84831237792969	-227.151611328125	-1326.332397460938	235.0390472412109	-257.8703308105469	-1226.52392578125	45.08280944824219	-157.3256225585938	-1295.91796875	37.43993377685547	-118.58642578125	-1303.369140625	43.5794563293457	-234.0855102539062	-1465.550537109375	54.31538009643555	-160.5867919921875	-987.484130859375	477.6476135253906	18.7782039642334	-1072.469116210938	725.78173828125	45.07677841186523	-951.7532348632812	61.35049057006836	-31.65240859985352	-950.6799926757812	360.8843078613281	8.623648643493652	-758.3118896484375	94.30374145507812	-38.88725662231445	-800.0568237304688	78.74006652832031	-91.18596649169922	-858.2200927734375	60.86774063110352	10.43614196777344	-988.8658447265625	57.55087661743164	-88.71836090087891	-1290.275634765625	952.7984619140625	-74.12788391113281	-1213.774536132812	703.945068359375	129.5618591308594	-1205.023071289062	576.3253173828125	-281.0543823242188	-970.36572265625	646.1031494140625	-281.7913513183594	nan	nan	nan	nan	nan	nan	nan	nan	nan	nan	nan	nan	nan	nan	nan	nan	nan	nan	nan	nan	nan	nan	nan	nan	
210	2.09	-1278.921020507812	958.1363525390625	-202.6548767089844	-1286.565063476562	1021.617797851562	-146.2383270263672	-1032.108764648438	1184.01123046875	-133.6220245361328	-1273.752807617188	1138.644409179688	-166.1388854980469	-1210.85205078125	1379.355224609375	-178.9919128417969	-1063.614379882812	1312.724853515625	-141.9320831298828	-1278.471313476562	1242.403198242188	-125.0170135498047	-1204.720458984375	1343.445434570312	-281.8302307128906	-1107.894897460938	1357.00244140625	-318.3698120117188	-1112.694213867188	1235.9775390625	-388.038330078125	-1081.90673828125	1032.391357421875	-394.3480834960938	-1159.10205078125	1015.013610839844	-360.8067626953125	-979.907958984375	806.5772094726562	-304.0440368652344	-997.2661743164062	786.761962890625	-368.1880493164062	-1055.200927734375	929.1642456054688	-390.6273803710938	-995.2593383789062	716.8214111328125	-356.2052612304688	-956.971435546875	728.015869140625	-305.9506530761719	-1190.574096679688	1362.933471679688	-7.706760406494141	-1221.225341796875	1299.861328125	49.45891952514648	-1257.59423828125	1035.769287109375	83.76265716552734	-1265.908325195312	1029.568725585938	-10.82839870452881	-1156.705200195312	798.6103515625	81.27226257324219	-1217.79345703125	787.1029052734375	129.1979522705078	-1245.013305664062	966.7066040039062	101.5028686523438	-1166.370727539062	623.7630615234375	97.16176605224609	-1146.715454101562	694.1261596679688	104.9400787353516	-1173.443969726562	1579.104248046875	-76.27062225341797	-979.9357299804688	1583.486572265625	-155.8672637939453	-1011.3720703125	1580.103271484375	-59.62508010864258	-1155.412963867188	1581.144653320312	-220.0687408447266	-1197.975830078125	892.9998168945312	-306.0658264160156	-1201.225952148438	900.4393920898438	35.06093215942383	-1098.847778320312	926.6651611328125	-12.45212554931641	-1073.268188476562	911.42529296875	-249.4374542236328	-1223.730590820312	437.0926513671875	-267.5631713867188	-1428.5615234375	51.33837890625	-226.9917297363281	-1324.906494140625	235.0683746337891	-257.7611999511719	-1226.4775390625	44.95163726806641	-157.3200073242188	-1295.910888671875	37.44981002807617	-118.6276550292969	-1303.29541015625	43.65222930908203	-234.0922698974609	-1465.411254882812	55.47467041015625	-160.5036926269531	-985.0890502929688	473.8507995605469	17.45181846618652	-1068.394897460938	722.5081176757812	45.82280349731445	-934.0484619140625	59.17653656005859	-31.95280647277832	-944.6832275390625	358.7884826660156	7.982308387756348	-741.6690063476562	98.79789733886719	-36.45061874389648	-782.2230224609375	81.81580352783203	-89.33278656005859	-841.0540161132812	61.78192901611328	11.46767044067383	-970.2941284179688	54.05146026611328	-89.47510528564453	-1284.1259765625	951.5115356445312	-73.14601898193359	-1211.7705078125	702.5723266601562	130.4804077148438	-1200.981323242188	575.4232177734375	-280.6151123046875	-964.08642578125	644.6376953125	-280.8475341796875	nan	nan	nan	nan	nan	nan	nan	nan	nan	nan	nan	nan	nan	nan	nan	nan	nan	nan	nan	nan	nan	nan	nan	nan	
211	2.1	-1272.556518554688	956.9740600585938	-201.5603332519531	-1280.052490234375	1020.108642578125	-145.1789703369141	-1025.910522460938	1182.40576171875	-132.8311920166016	-1267.542358398438	1137.132446289062	-165.2730712890625	-1204.549072265625	1377.811401367188	-178.3640441894531	-1057.394897460938	1311.117553710938	-141.2299041748047	-1272.33642578125	1240.950927734375	-124.3195190429688	-1198.485473632812	1341.820556640625	-281.1705017089844	-1101.7041015625	1355.250610351562	-317.7657470703125	-1106.590576171875	1234.15087890625	-387.3056945800781	-1075.614868164062	1030.625610351562	-393.6368103027344	-1152.811645507812	1013.166381835938	-360.0032348632812	-973.3655395507812	804.9397583007812	-303.3912658691406	-990.6920776367188	785.0983276367188	-367.5466918945312	-1048.793090820312	927.42138671875	-389.9422912597656	-988.5499877929688	715.1477661132812	-355.572509765625	-950.1087036132812	726.5060424804688	-305.4208679199219	-1184.284790039062	1361.456787109375	-7.041063785552979	-1215.075317382812	1298.47900390625	50.1364860534668	-1252.486083984375	1034.515747070312	84.25524139404297	-1260.62841796875	1028.390014648438	-10.33164215087891	-1153.430541992188	796.6663818359375	82.44809722900391	-1214.756713867188	785.690673828125	129.9795837402344	-1240.369750976562	965.4659423828125	102.0774993896484	-1164.614013671875	621.8391723632812	98.31874847412109	-1144.423217773438	692.0755615234375	106.0652542114258	-1167.368530273438	1577.4521484375	-75.75149536132812	-973.6917114257812	1582.063720703125	-154.8468475341797	-1005.388122558594	1578.63232421875	-58.66939544677734	-1148.998046875	1579.546020507812	-219.4781799316406	-1191.614868164062	891.764892578125	-304.9825439453125	-1195.227294921875	898.70947265625	36.19003677368164	-1092.717651367188	924.7393798828125	-11.36230564117432	-1066.917846679688	909.8267822265625	-248.4069061279297	-1220.553955078125	436.4426879882812	-267.3002624511719	-1428.394409179688	51.93164443969727	-226.8298187255859	-1323.434814453125	235.1694030761719	-257.6160278320312	-1226.415161132812	44.80552673339844	-157.3110198974609	-1295.888671875	37.46366882324219	-118.6724548339844	-1303.194091796875	43.73813629150391	-234.0920715332031	-1465.234375	56.7476806640625	-160.4099731445312	-982.3834838867188	470.1601257324219	16.0643253326416	-1064.125244140625	719.1578369140625	46.63166046142578	-917.3829345703125	57.42624664306641	-32.273681640625	-938.8222045898438	356.8457946777344	7.296465873718262	-726.169921875	103.1906356811523	-33.67911911010742	-765.4622192382812	84.92288208007812	-87.21201324462891	-825.1030883789062	62.85522079467773	12.64111995697021	-952.7427368164062	51.19867706298828	-90.29541015625	-1277.816284179688	950.1674194335938	-72.09262084960938	-1209.487182617188	701.1727294921875	131.4120941162109	-1196.860717773438	574.5471801757812	-280.1422424316406	-957.8951416015625	643.0042724609375	-280.0415649414062	nan	nan	nan	nan	nan	nan	nan	nan	nan	nan	nan	nan	nan	nan	nan	nan	nan	nan	nan	nan	nan	nan	nan	nan	
212	2.11	-1266.000122070312	955.7845458984375	-200.3993682861328	-1273.341674804688	1018.554382324219	-144.0521850585938	-1019.531860351562	1180.805541992188	-131.9353942871094	-1261.146484375	1135.577026367188	-164.3403167724609	-1198.108764648438	1376.23486328125	-177.6683654785156	-1051.038330078125	1309.50634765625	-140.4326629638672	-1266.044067382812	1239.447387695312	-123.5690002441406	-1192.08251953125	1340.163940429688	-280.4334106445312	-1095.341552734375	1353.484497070312	-317.0765991210938	-1100.327270507812	1232.302734375	-386.4832763671875	-1069.2421875	1028.8271484375	-392.8392028808594	-1146.390014648438	1011.318298339844	-359.0604553222656	-966.833740234375	803.1655883789062	-302.7964477539062	-984.19970703125	783.337646484375	-366.9567260742188	-1042.367431640625	925.6349487304688	-389.208740234375	-981.9710693359375	713.37353515625	-355.0224914550781	-943.3423461914062	724.8336181640625	-304.997802734375	-1177.900268554688	1359.948608398438	-6.302186489105225	-1208.837646484375	1297.057983398438	50.8733024597168	-1247.225219726562	1033.216674804688	84.80762481689453	-1255.173583984375	1027.156982421875	-9.770183563232422	-1149.902099609375	794.748291015625	83.70584106445312	-1211.454223632812	784.2564086914062	130.8272705078125	-1235.560180664062	964.1802368164062	102.728141784668	-1162.51513671875	619.9204711914062	99.42442321777344	-1141.834106445312	690.042724609375	107.2212371826172	-1161.165283203125	1575.8046875	-75.18579864501953	-967.324951171875	1580.627807617188	-153.7431182861328	-999.2759399414062	1577.161254882812	-57.63961410522461	-1142.438720703125	1577.93408203125	-218.8240203857422	-1185.033935546875	890.5269775390625	-303.8363342285156	-1189.115844726562	896.9202270507812	37.36519622802734	-1086.424438476562	922.787841796875	-10.17224216461182	-1060.369018554688	908.2194213867188	-247.2747955322266	-1217.302001953125	435.8471984863281	-267.0063171386719	-1428.184936523438	52.64709854125977	-226.6779174804688	-1321.907104492188	235.3550262451172	-257.4382019042969	-1226.336791992188	44.64909362792969	-157.2998504638672	-1295.847778320312	37.48762893676758	-118.7222595214844	-1303.059936523438	43.83721160888672	-234.0877227783203	-1465.01171875	58.14389038085938	-160.3119659423828	-979.2791137695312	466.6241760253906	14.67433738708496	-1059.603759765625	715.7935791015625	47.51935958862305	-901.9223022460938	56.00301361083984	-32.71593475341797	-933.0553588867188	355.0306091308594	6.579851150512695	-711.9220581054688	107.25146484375	-30.67804145812988	-749.9041748046875	87.88002014160156	-84.92809295654297	-810.51513671875	63.92655944824219	13.85176181793213	-936.3668212890625	48.9223518371582	-91.27670288085938	-1271.346923828125	948.7727661132812	-70.97597503662109	-1206.912353515625	699.7481079101562	132.3585510253906	-1192.6484375	573.71044921875	-279.6348571777344	-951.7828979492188	641.2152099609375	-279.3763427734375	nan	nan	nan	nan	nan	nan	nan	nan	nan	nan	nan	nan	nan	nan	nan	nan	nan	nan	nan	nan	nan	nan	nan	nan	
